<?xml version="1.0" standalone="no"?>
<!DOCTYPE svg PUBLIC "-//W3C//DTD SVG 20010904//EN"
 "http://www.w3.org/TR/2001/REC-SVG-20010904/DTD/svg10.dtd">
<svg version="1.0" xmlns="http://www.w3.org/2000/svg"
 width="1000.000000pt" height="1000.000000pt" viewBox="0 0 1000.000000 1000.000000"
 preserveAspectRatio="xMidYMid meet">
<metadata>
Created by potrace 1.14, written by Peter Selinger 2001-2017
</metadata>
<g transform="translate(0.000000,1000.000000) scale(0.100000,-0.100000)"
fill="#000000" stroke="none">
<path d="M0 5000 l0 -5000 5000 0 5000 0 0 5000 0 5000 -5000 0 -5000 0 0
-5000z m3425 2480 c428 -35 808 -205 1094 -490 323 -321 444 -721 342 -1123
-39 -150 -134 -292 -235 -350 -106 -62 -274 -80 -396 -44 -249 74 -547 441
-1135 1397 -76 124 -141 229 -146 234 -9 11 -112 -59 -218 -148 -253 -213
-437 -526 -508 -866 -14 -65 -18 -129 -17 -275 0 -174 2 -199 27 -290 106
-394 416 -688 822 -782 66 -15 120 -18 300 -17 246 1 378 19 657 89 453 114
809 246 1817 677 950 405 1322 538 1661 593 123 19 342 19 456 0 538 -94 1033
-548 1171 -1074 32 -120 35 -309 8 -436 -16 -75 -90 -314 -118 -380 -13 -29
-13 -30 107 -150 269 -268 439 -555 501 -850 22 -103 19 -317 -5 -434 -36
-174 -129 -323 -250 -401 -90 -57 -188 -83 -325 -83 -144 -1 -226 17 -342 74
-153 76 -277 218 -337 388 -26 75 -30 103 -34 221 -11 351 104 663 418 1135
36 55 70 106 74 112 5 9 -32 39 -116 93 -325 213 -676 342 -1078 396 -168 23
-528 23 -745 0 -776 -82 -1528 -328 -2710 -886 -154 -73 -317 -150 -362 -171
-46 -21 -83 -41 -83 -43 0 -2 80 -51 178 -109 642 -379 1104 -590 1537 -702
546 -140 1106 -119 1455 55 207 104 318 239 328 398 9 136 -19 238 -136 512
-89 205 -110 289 -94 379 28 167 157 259 351 249 181 -9 291 -107 347 -309 23
-82 26 -349 5 -454 -44 -224 -146 -410 -311 -569 -216 -208 -499 -333 -885
-392 -182 -28 -559 -25 -754 5 -542 83 -1077 305 -1888 783 l-211 125 -169
-79 c-1047 -494 -1617 -659 -2133 -620 -469 37 -732 177 -875 467 -54 109 -81
213 -95 364 -24 262 39 481 185 639 236 255 614 335 1120 237 400 -77 802
-250 1434 -618 l225 -130 85 30 c47 17 248 90 446 161 1379 497 2225 700 3130
753 454 26 821 -19 1184 -146 201 -70 439 -190 599 -301 35 -24 66 -44 70 -44
18 0 145 245 178 344 55 160 55 333 0 495 -96 283 -359 467 -746 521 -96 14
-404 14 -540 0 -385 -38 -871 -136 -1468 -296 -136 -36 -582 -162 -992 -279
-969 -277 -1282 -355 -1605 -400 -178 -25 -475 -16 -645 20 -660 138 -1109
550 -1206 1105 -21 124 -14 391 15 531 141 689 698 1145 1426 1167 22 1 94 -3
160 -8z"/>
<path d="M3570 7309 c-172 -12 -349 -59 -502 -132 l-67 -32 160 -270 c267
-450 405 -643 560 -790 166 -157 299 -215 494 -216 78 -1 112 4 156 20 185 70
280 244 280 516 0 204 -59 382 -181 543 -152 203 -408 340 -667 358 -43 3 -89
6 -103 8 -14 1 -72 -1 -130 -5z"/>
<path d="M1069 4534 c-110 -19 -239 -69 -322 -123 -179 -118 -276 -297 -277
-511 0 -163 49 -278 164 -388 215 -204 577 -260 1095 -171 133 23 392 84 549
130 317 92 962 312 962 328 0 17 -460 276 -703 397 -394 195 -700 298 -1007
340 -131 17 -361 17 -461 -2z"/>
<path d="M8920 3992 c-101 -258 -164 -487 -196 -709 -23 -162 -20 -442 5 -563
37 -172 112 -284 229 -338 50 -23 70 -27 157 -27 92 0 105 3 168 32 91 43 156
112 206 216 54 113 71 190 78 342 6 150 -9 252 -59 393 -58 167 -171 361 -293
508 -69 82 -213 232 -237 245 -14 8 -23 -7 -58 -99z"/>
</g>
</svg>
